HIERARCHY
ROOT Hips
{
	OFFSET 0.00 0.00 0.00
	CHANNELS 6 Xposition Yposition Zposition Xrotation Yrotation Zrotation
	JOINT Spine
	{
		OFFSET 0.00000 1.61617 2.42426
		CHANNELS 3 Xrotation Yrotation Zrotation
		JOINT Spine1
		{
			OFFSET 0.00000 0.56129 3.18324
			CHANNELS 3 Xrotation Yrotation Zrotation
			JOINT Spine2
			{
				OFFSET 0.00000 0.28172 3.22005
				CHANNELS 3 Xrotation Yrotation Zrotation
				JOINT Spine3
				{
					OFFSET 0.00000 0.00000 3.23235
					CHANNELS 3 Xrotation Yrotation Zrotation
					JOINT Neck
					{
						OFFSET 0.00000 -1.21212 8.48491
						CHANNELS 3 Xrotation Yrotation Zrotation
						JOINT Head
						{
							OFFSET 0.00000 -0.77177 4.37696
							CHANNELS 3 Xrotation Yrotation Zrotation
							End Site
							{
								OFFSET 0.00000 0.00001 5.23236
							}
						}
					}
					JOINT RightShoulder
					{
						OFFSET -1.05492 -1.75819 5.69655
						CHANNELS 3 Xrotation Yrotation Zrotation
						JOINT RightArm
						{
							OFFSET -5.23942 0.00000 0.00000
							CHANNELS 3 Xrotation Yrotation Zrotation
							JOINT RightForeArm
							{
								OFFSET -10.59715 0.00000 0.00000
								CHANNELS 3 Xrotation Yrotation Zrotation
								JOINT RightHand
								{
									OFFSET -8.61218 0.00000 0.00000
									CHANNELS 3 Xrotation Yrotation Zrotation
									JOINT RightHandEnd
									{
										OFFSET -2.51134 0.00000 0.00000
										CHANNELS 3 Xrotation Yrotation Zrotation
										End Site
										{
											OFFSET -2.51134 0.00000 0.00000
										}
									}
									JOINT RightHandThumb1
									{
										OFFSET -1.00454 -1.67423 -0.66969
										CHANNELS 3 Yrotation Xrotation Zrotation
										End Site
										{
											OFFSET -2.42577 -0.64998 0.00000
										}
									}
								}
							}
						}
					}
					JOINT LeftShoulder
					{
						OFFSET 1.05492 -1.75819 5.69655
						CHANNELS 3 Xrotation Yrotation Zrotation
						JOINT LeftArm
						{
							OFFSET 5.23942 0.00000 0.00000
							CHANNELS 3 Xrotation Yrotation Zrotation
							JOINT LeftForeArm
							{
								OFFSET 10.59715 0.00000 0.00000
								CHANNELS 3 Xrotation Yrotation Zrotation
								JOINT LeftHand
								{
									OFFSET 8.61218 0.00000 0.00000
									CHANNELS 3 Xrotation Yrotation Zrotation
									JOINT LeftHandEnd
									{
										OFFSET 2.51134 0.00000 0.00000
										CHANNELS 3 Xrotation Yrotation Zrotation
										End Site
										{
											OFFSET 2.51134 0.00000 0.00000
										}
									}
									JOINT LeftHandThumb1
									{
										OFFSET 1.00454 -1.67423 -0.66969
										CHANNELS 3 Yrotation Xrotation Zrotation
										End Site
										{
											OFFSET 2.42577 -0.64998 0.00000
										}
									}
								}
							}
						}
					}
				}
			}
		}
	}
	JOINT RightUpLeg
	{
		OFFSET -3.12959 0.00000 -0.91426
		CHANNELS 3 Xrotation Yrotation Zrotation
		JOINT RightLeg
		{
			OFFSET 0.00001 0.00000 -15.50916
			CHANNELS 3 Xrotation Yrotation Zrotation
			JOINT RightFoot
			{
				OFFSET 0.00000 0.00000 -13.57731
				CHANNELS 3 Xrotation Yrotation Zrotation
				JOINT RightToeBase
				{
					OFFSET 0.00000 -5.09667 -1.85504
					CHANNELS 3 Xrotation Yrotation Zrotation
					End Site
					{
						OFFSET 0.00000 -2.53180 -0.00000
					}
				}
			}
		}
	}
	JOINT LeftUpLeg
	{
		OFFSET 3.12959 0.00000 -0.91426
		CHANNELS 3 Xrotation Yrotation Zrotation
		JOINT LeftLeg
		{
			OFFSET 0.00001 0.00000 -15.50916
			CHANNELS 3 Xrotation Yrotation Zrotation
			JOINT LeftFoot
			{
				OFFSET 0.00000 0.00000 -13.57731
				CHANNELS 3 Xrotation Yrotation Zrotation
				JOINT LeftToeBase
				{
					OFFSET 0.00000 -5.09667 -1.85504
					CHANNELS 3 Xrotation Yrotation Zrotation
					End Site
					{
						OFFSET 0.00000 -2.53180 -0.00000
					}
				}
			}
		}
	}
}
MOTION
Frames: 9
Frame Time: 0.008342
 8.6590 -39.8503 32.5507 -1.5097 5.7390 -132.2212 -0.2295 0.3611 0.7487 -0.2338 -1.5159 0.1434 1.8526 0.9956 5.2076 0.6164 0.3854 1.1993 -0.5979 0.4256 -15.5386 5.7989 -5.6725 -22.5189 5.4676 -4.8413 8.6913 4.6423 7.5406 16.6984 -0.0000 0.0001 51.5595 10.7460 -15.2742 -36.8656 0.0000 0.0000 0.0000 0.0000 -0.0000 0.0000 7.3589 5.6414 -4.6870 4.9256 47.7483 -3.2925 -0.0001 -0.0000 -120.8544 35.0849 -41.1271 -13.4512 0.0000 -0.0000 -0.0000 -0.0000 -0.0000 0.0000 3.8547 17.2628 -31.5042 35.1723 0.0000 0.0000 -2.5100 5.5468 -27.2055 -20.4130 0.0000 -0.0000 -2.4556 2.3029 8.2907 18.7481 0.0000 0.0000 -6.9548 3.1088 -0.0511 -0.3054 0.0000 -0.0000
 8.5149 -39.9094 32.5521 -1.6320 5.7097 -131.5268 -0.2259 0.4092 0.7411 -0.2367 -1.5206 0.1352 1.8062 0.9498 5.0963 0.5939 0.3998 1.1661 -0.6225 0.3229 -15.8963 5.6967 -5.7089 -22.9360 5.6435 -4.6052 8.2589 7.0138 7.9510 15.8802 -0.0000 0.0001 52.3607 8.9467 -15.0297 -38.0430 -0.0000 0.0000 0.0000 0.0000 -0.0000 0.0000 7.3149 5.5972 -4.5358 3.7639 47.2001 -2.0623 -0.0001 -0.0000 -120.9386 34.6705 -41.1903 -13.3780 -0.0000 -0.0000 0.0000 0.0000 0.0000 0.0000 3.4183 17.4753 -29.8562 36.5150 0.0000 0.0000 -2.4576 5.9845 -25.3115 -22.2654 0.0000 -0.0000 -2.4036 2.6225 7.9973 18.6232 0.0000 0.0000 -7.0178 2.8482 -0.4258 -0.3354 0.0000 -0.0000
 8.3800 -39.9658 32.5560 -1.7358 5.6459 -130.8592 -0.2328 0.4370 0.7262 -0.2395 -1.5178 0.1271 1.7690 0.8964 4.9635 0.5709 0.4131 1.1263 -0.6613 0.2070 -16.2262 5.6047 -5.7306 -23.3105 5.8526 -4.4112 7.8263 9.4416 8.3371 15.1312 -0.0000 0.0001 53.1603 7.5306 -14.8669 -39.1811 0.0000 -0.0000 -0.0000 -0.0000 0.0000 0.0000 7.2811 5.5536 -4.3741 2.6088 46.6300 -0.8420 -0.0001 -0.0000 -121.0271 34.2321 -41.2443 -13.3433 0.0000 0.0000 0.0000 -0.0000 0.0000 0.0000 2.9290 17.5922 -28.2078 37.8508 0.0000 0.0000 -2.6687 6.1565 -23.3183 -23.7863 0.0000 -0.0000 -2.3723 2.8928 7.6982 18.5052 0.0000 0.0000 -7.0529 2.6367 -0.7577 -0.3662 0.0000 -0.0000
 8.2538 -40.0194 32.5625 -1.8196 5.5553 -130.2122 -0.2464 0.4478 0.7050 -0.2403 -1.5067 0.1185 1.7403 0.8344 4.8071 0.5478 0.4247 1.0836 -0.7125 0.0824 -16.5358 5.5242 -5.7422 -23.6459 6.0946 -4.2542 7.3845 11.8813 8.6758 14.4584 -0.0000 0.0001 53.9836 6.4810 -14.9311 -40.3286 -0.0000 0.0000 -0.0000 -0.0000 0.0000 0.0000 7.2592 5.5045 -4.2119 1.4650 46.0462 0.3645 -0.0001 -0.0000 -121.1170 33.7878 -41.2967 -13.3335 -0.0000 0.0000 -0.0000 -0.0000 -0.0000 -0.0000 2.3983 17.6187 -26.5927 39.1594 0.0000 0.0000 -3.0990 6.0375 -21.2871 -24.9494 0.0000 -0.0000 -2.3556 3.1178 7.4023 18.3931 0.0000 0.0000 -7.0560 2.4726 -1.0601 -0.3878 0.0000 -0.0000
 8.1356 -40.0673 32.5725 -1.8339 5.4546 -129.5782 -0.2292 0.4197 0.6744 -0.2358 -1.4890 0.1107 1.7204 0.7604 4.6245 0.5248 0.4355 1.0388 -0.7730 -0.0505 -16.8333 5.4548 -5.7469 -23.9448 6.3667 -4.1334 6.9293 14.2844 8.9469 13.8636 -0.0000 0.0001 54.8683 5.7317 -15.4177 -41.5346 0.0000 0.0000 -0.0000 -0.0000 0.0000 0.0000 7.2521 5.4408 -4.0568 0.3378 45.4565 1.5509 -0.0001 -0.0000 -121.2053 33.3533 -41.3525 -13.3350 -0.0000 0.0000 0.0000 -0.0000 -0.0000 -0.0000 1.8947 17.5129 -25.0418 40.3867 0.0000 0.0000 -3.6710 5.6221 -19.3035 -25.7554 0.0000 -0.0000 -2.3061 3.2635 7.1219 18.2904 0.0000 0.0000 -7.0366 2.3494 -1.3620 -0.3932 0.0000 -0.0000
 8.0253 -40.1123 32.5853 -1.8253 5.3381 -128.9514 -0.2141 0.3802 0.6411 -0.2279 -1.4692 0.0986 1.7095 0.6800 4.4181 0.5015 0.4459 0.9906 -0.8387 -0.1893 -17.1204 5.3932 -5.7468 -24.2114 6.6632 -4.0511 6.4691 16.6047 9.1382 13.3400 -0.0000 0.0001 55.8571 5.1742 -16.5555 -42.8232 0.0000 -0.0000 0.0000 0.0000 0.0000 0.0000 7.2574 5.3626 -3.9139 -0.7685 44.8634 2.7164 -0.0001 -0.0000 -121.2913 32.9460 -41.4164 -13.3321 0.0000 0.0000 -0.0000 -0.0000 -0.0000 0.0000 1.3691 17.3212 -23.5752 41.5455 0.0000 0.0000 -4.3263 4.9366 -17.4402 -26.2291 0.0000 -0.0000 -2.2663 3.3674 6.8482 18.1980 0.0000 0.0000 -6.9869 2.2554 -1.6550 -0.3863 0.0000 -0.0000
 7.9223 -40.1530 32.6013 -1.7731 5.2181 -128.3260 -0.1827 0.3201 0.6020 -0.2153 -1.4424 0.0878 1.7080 0.5868 4.1870 0.4785 0.4570 0.9404 -0.9077 -0.3314 -17.4042 5.3401 -5.7437 -24.4492 6.9741 -4.0037 6.0002 18.7977 9.2326 12.8942 -0.0000 0.0001 56.9867 4.6724 -18.5773 -44.1730 0.0000 0.0000 -0.0000 -0.0000 0.0000 0.0000 7.2751 5.2647 -3.7885 -1.8455 44.2723 3.8504 -0.0001 -0.0000 -121.3718 32.5681 -41.4905 -13.3209 -0.0000 -0.0000 -0.0000 -0.0000 -0.0000 0.0000 0.8572 17.0311 -22.2127 42.6056 0.0000 0.0000 -4.9940 4.0269 -15.7801 -26.4232 0.0000 -0.0000 -2.2128 3.4182 6.5834 18.1183 0.0000 0.0000 -6.9131 2.1786 -1.9541 -0.3724 0.0000 -0.0000
 7.8268 -40.1898 32.6201 -1.6858 5.0881 -127.6967 -0.1454 0.2419 0.5587 -0.1990 -1.4110 0.0750 1.7151 0.4830 3.9327 0.4558 0.4677 0.8891 -0.9754 -0.4742 -17.6856 5.2913 -5.7382 -24.6628 7.2916 -3.9955 5.5314 20.8296 9.2285 12.5234 -0.0000 0.0001 58.2802 4.0699 -21.6657 -45.4967 0.0000 0.0000 0.0000 -0.0000 0.0000 0.0000 7.3046 5.1510 -3.6854 -2.8900 43.6793 4.9503 -0.0001 -0.0000 -121.4473 32.2298 -41.5790 -13.2847 -0.0000 0.0000 -0.0000 0.0000 -0.0000 -0.0000 0.3480 16.6472 -20.9630 43.5606 0.0000 0.0000 -5.6263 2.9591 -14.3963 -26.4074 0.0000 -0.0000 -2.1634 3.4182 6.3213 18.0600 0.0000 0.0000 -6.8208 2.1065 -2.2608 -0.3610 0.0000 -0.0000
 7.7384 -40.2227 32.6416 -1.5688 4.9544 -127.0609 -0.1022 0.1508 0.5121 -0.1793 -1.3757 0.0616 1.7308 0.3703 3.6577 0.4337 0.4781 0.8356 -1.0387 -0.6161 -17.9655 5.2464 -5.7314 -24.8554 7.6038 -4.0206 5.0659 22.6804 9.1170 12.2423 -0.0000 0.0001 59.7304 3.2277 -25.8791 -46.6337 0.0000 0.0000 -0.0000 -0.0000 0.0000 0.0000 7.3406 5.0182 -3.6055 -3.8934 43.0895 6.0097 -0.0001 -0.0000 -121.5161 31.9228 -41.6817 -13.2283 -0.0000 0.0000 -0.0000 0.0000 -0.0000 -0.0000 -0.1549 16.1815 -19.8319 44.4071 0.0000 0.0000 -6.1992 1.8109 -13.3436 -26.2580 0.0000 -0.0000 -2.1183 3.3764 6.0542 18.0241 0.0000 0.0000 -6.7123 2.0300 -2.5719 -0.3640 0.0000 -0.0000
